:SAMPLES-PER-SECOND 30
:FULLY-SPECIFIED
:DEGREES
854
root  67.7252 38.6624 26.059 -153.983 0.536118 175.718
RightUpLeg  -53.445 -26.3899 15.1384
RightLeg  21.0146 -1.57494 -0.889969
RightFoot  2.79069 0.904339 -7.12693
RightToes  0.00048216 0.542163 -0.142577
Spine  62.1281 -5.5966 8.34408
Spine1  9.84515 0.442092 -4.04192
HEad  -35.893 -2.40857 -4.36266
LeftShoulder1  10.7782 -26.8169 -29.2621
LeftArm  -60.2902 -60.7925 3.93773
LeftForeArm  2.81154 -16.468 -2.02823
LeftHand  -0.25398 0.0180481 5.50724
RightShoulder  5.55173 13.5638 26.4463
RightArm  -64.9345 60.6539 -21.6648
RightForeArm  -6.93146 14.2272 5.0424
RightHand  0.400044 13.8834 1.81421
LeftUpLeg  -45.3749 3.17233 -6.89989
LeftLeg  12.9794 0.153715 -1.48093
LeftFoot  7.8029 -0.997271 5.62843
LeftToes  1.06244e-005 4.65855e-005 -8.18506e-006
855
root  67.7606 38.6354 26.3643 -154.988 -0.213791 175.799
RightUpLeg  -53.1593 -28.0327 16.0885
RightLeg  20.829 -0.591907 -0.40691
RightFoot  2.9265 0.920245 -7.17796
RightToes  0.00048216 0.542163 -0.142577
Spine  62.0339 -6.00375 8.84969
Spine1  9.30865 0.431145 -4.69412
HEad  -35.8689 -1.30121 -5.54082
LeftShoulder1  10.9631 -27.2031 -29.4048
LeftArm  -59.0331 -61.7823 3.75267
LeftForeArm  1.05485 -14.1875 -1.30525
LeftHand  -0.25398 0.0180481 5.50724
RightShoulder  5.89473 14.054 27.5447
RightArm  -65.9983 60.7966 -21.9895
RightForeArm  -6.95743 11.713 4.86636
RightHand  0.478103 13.2816 2.38421
LeftUpLeg  -45.0671 3.74669 -7.24308
LeftLeg  13.3072 -0.99427 -1.57319
LeftFoot  8.49345 -0.883581 4.75776
LeftToes  1.06244e-005 4.65855e-005 -8.18506e-006
856
root  67.7769 38.6315 26.6874 -156.02 -1.06754 175.92
RightUpLeg  -52.5116 -29.6814 16.6846
RightLeg  20.2245 0.0107665 0.278745
RightFoot  3.28011 0.943245 -7.16236
RightToes  0.00048216 0.542163 -0.142577
Spine  61.7829 -5.59304 9.44395
Spine1  8.55226 1.00485 -4.18124
HEad  -35.9936 -1.26671 -6.62649
LeftShoulder1  11.6849 -28.4538 -30.2646
LeftArm  -57.5057 -62.1957 1.24164
LeftForeArm  1.13306 -13.6881 -1.06783
LeftHand  -0.25398 0.0180481 5.50724
RightShoulder  5.7501 13.3574 28.0892
RightArm  -65.199 60.1352 -20.2448
RightForeArm  -7.81232 11.2855 4.65734
RightHand  0.597626 12.002 3.4154
LeftUpLeg  -44.7515 4.63553 -7.78049
LeftLeg  13.5292 -2.82482 -2.00679
LeftFoot  9.70898 -0.85237 4.25618
LeftToes  1.06244e-005 4.65855e-005 -8.18506e-006
857
root  67.7736 38.6481 27.003 -156.928 -2.03944 176.068
RightUpLeg  -51.2801 -30.5991 16.1346
RightLeg  19.3515 -0.744358 1.07557
RightFoot  3.74703 0.996774 -7.31624
RightToes  0.00048216 0.542163 -0.142577
Spine  60.9506 -5.20055 8.81802
Spine1  9.05351 0.280316 -2.3515
HEad  -37.4529 1.03124 -9.26323
LeftShoulder1  11.4997 -26.7186 -31.7889
LeftArm  -57.9312 -62.6251 0.873287
LeftForeArm  1.62612 -15.5993 -1.88641
LeftHand  -0.25398 0.0180481 5.50724
RightShoulder  5.3794 13.8538 24.8373
RightArm  -62.9226 59.1292 -13.8448
RightForeArm  -8.9165 13.4436 4.28524
RightHand  0.729394 10.4744 4.78464
LeftUpLeg  -44.6338 5.87594 -8.63395
LeftLeg  13.8564 -5.42029 -2.61549
LeftFoot  11.2898 -0.946707 4.39004
LeftToes  1.06244e-005 4.65855e-005 -8.18506e-006
858
root  67.7507 38.6848 27.2896 -157.939 -3.22363 176.189
RightUpLeg  -48.9085 -30.1996 13.6178
RightLeg  18.3521 -3.59271 1.89075
RightFoot  4.21255 1.06847 -7.59509
RightToes  0.00048216 0.542163 -0.142577
Spine  60.1163 -5.06939 8.84345
Spine1  8.91686 0.0513002 -1.99523
HEad  -37.8274 2.7172 -11.4624
LeftShoulder1  11.2429 -26.2539 -31.5404
LeftArm  -55.9475 -61.3033 -2.86566
LeftForeArm  3.23336 -19.2812 -3.34165
LeftHand  -0.25398 0.0180481 5.50724
RightShoulder  5.29094 13.7247 24.5497
RightArm  -56.8088 56.0265 -8.57583
RightForeArm  -13.2067 18.3663 5.04829
RightHand  0.801158 8.67093 6.08834
LeftUpLeg  -44.4949 7.68339 -9.69724
LeftLeg  14.3869 -8.48191 -3.23285
LeftFoot  12.3443 -0.492719 2.01179
LeftToes  1.06244e-005 4.65855e-005 -8.18506e-006
859
root  67.6962 38.7446 27.538 -159.375 -4.66899 176.229
RightUpLeg  -45.1829 -28.43 9.14745
RightLeg  17.2641 -8.47555 2.64237
RightFoot  4.66976 1.08791 -7.49293
RightToes  0.00048216 0.542163 -0.142577
Spine  59.3134 -5.23806 8.8838
Spine1  8.93438 -0.403809 -2.01221
HEad  -37.7552 4.66317 -13.0716
LeftShoulder1  11.0594 -25.8942 -31.3854
LeftArm  -51.6789 -59.0206 -6.72802
LeftForeArm  3.36837 -23.5489 -4.87226
LeftHand  -0.25398 0.0180481 5.50724
RightShoulder  5.4477 13.9201 25.1308
RightArm  -49.1904 51.6496 -3.82965
RightForeArm  -19.2282 24.4476 6.1406
RightHand  0.723229 6.47781 6.59602
LeftUpLeg  -43.856 10.1265 -10.625
LeftLeg  15.0768 -12.1092 -4.01979
LeftFoot  11.7418 1.13573 -5.98655
LeftToes  1.06244e-005 4.65855e-005 -8.18506e-006
860
root  67.5835 38.806 27.7444 -161.14 -6.31569 176.272
RightUpLeg  -41.0794 -26.22 4.38949
RightLeg  16.288 -13.9039 3.28111
RightFoot  5.0204 1.00777 -6.7577
RightToes  0.00048216 0.542163 -0.142577
Spine  58.2697 -5.49047 9.02597
Spine1  9.44706 -0.877563 -2.08812
HEad  -38.0719 6.64231 -14.0895
LeftShoulder1  10.7061 -25.4327 -30.774
LeftArm  -45.8557 -56.6839 -11.7391
LeftForeArm  2.97288 -27.669 -5.81418
LeftHand  -0.25398 0.0180481 5.50724
RightShoulder  5.47747 13.7543 25.6272
RightArm  -43.7784 46.8368 0.966314
RightForeArm  -23.4629 30.4456 7.80683
RightHand  0.530607 4.24698 6.02021
LeftUpLeg  -42.6204 12.3811 -10.8131
LeftLeg  16.282 -16.4128 -5.22296
LeftFoot  8.86792 3.01529 -17.2239
LeftToes  1.06244e-005 4.65855e-005 -8.18506e-006
861
root  67.3974 38.8715 27.9098 -162.82 -8.10533 176.437
RightUpLeg  -37.2945 -24.1671 0.396513
RightLeg  15.1926 -18.9148 3.98036
RightFoot  5.32725 0.904042 -5.91229
RightToes  0.00048216 0.542163 -0.142577
Spine  57.0203 -5.56107 9.21877
Spine1  9.65183 -1.19622 -1.73952
HEad  -38.4509 8.68553 -15.7231
LeftShoulder1  10.5337 -24.8478 -30.9463
LeftArm  -39.1093 -53.8838 -17.6498
LeftForeArm  3.6846 -31.5568 -6.72744
LeftHand  -0.25398 0.0180481 5.50724
RightShoulder  5.41533 13.271 26.196
RightArm  -38.9672 41.4138 5.80419
RightForeArm  -25.964 36.1132 9.53609
RightHand  0.351638 2.54467 4.90515
LeftUpLeg  -41.1357 12.8874 -9.48949
LeftLeg  18.6795 -19.2802 -6.78283
LeftFoot  4.51736 3.41883 -24.2849
LeftToes  1.06244e-005 4.65855e-005 -8.18506e-006
862
root  67.1423 38.9773 28.0434 -164.289 -9.96954 176.762
RightUpLeg  -33.498 -21.5343 -3.20386
RightLeg  13.2227 -24.0843 4.96004
RightFoot  5.99481 0.863285 -5.3853
RightToes  0.00048216 0.542163 -0.142577
Spine  55.7087 -5.52624 9.25312
Spine1  9.52648 -1.43301 -1.04224
HEad  -38.7377 11.2411 -18.8212
LeftShoulder1  10.5387 -24.1541 -31.9185
LeftArm  -32.3436 -49.9402 -22.9558
LeftForeArm  4.75844 -35.4959 -7.72949
LeftHand  -0.25398 0.0180481 5.50724
RightShoulder  5.32208 12.7816 26.6122
RightArm  -34.6939 35.2599 10.4195
RightForeArm  -26.3248 41.4535 11.3554
RightHand  0.240251 1.42068 3.95685
LeftUpLeg  -39.6924 12.2799 -7.34282
LeftLeg  22.08 -18.1132 -7.58061
LeftFoot  0.454345 2.40929 -22.9064
LeftToes  1.06244e-005 4.65855e-005 -8.18506e-006
863
root  66.8194 39.1015 28.1484 -165.692 -11.7296 177.224
RightUpLeg  -29.737 -18.3971 -6.20652
RightLeg  10.481 -29.1375 6.00811
RightFoot  7.10557 0.807659 -4.67261
RightToes  0.00048216 0.542163 -0.142577
Spine  54.5336 -5.44274 9.12382
Spine1  9.10648 -1.6232 -0.262538
HEad  -39.2547 14.7002 -23.3137
LeftShoulder1  10.711 -23.4795 -33.5207
LeftArm  -26.4983 -44.7598 -26.7879
LeftForeArm  5.77735 -39.737 -8.94965
LeftHand  -0.25398 0.0180481 5.50724
RightShoulder  5.32892 12.4346 27.3966
RightArm  -31.1117 28.439 14.0036
RightForeArm  -25.1962 46.8239 13.5056
RightHand  0.167487 0.484093 3.27751
LeftUpLeg  -38.2 12.728 -5.545
LeftLeg  25.2601 -12.7543 -6.15116
LeftFoot  -2.32181 1.36288 -17.0394
LeftToes  1.06244e-005 4.65855e-005 -8.18506e-006
864
root  66.429 39.2022 28.229 -166.909 -13.2883 177.65
RightUpLeg  -26.5995 -16.451 -7.99436
RightLeg  7.79212 -32.4992 6.77308
RightFoot  8.26213 0.646771 -3.41242
RightToes  0.00048216 0.542163 -0.142577
Spine  53.3279 -5.18738 8.88096
Spine1  8.42077 -1.6767 0.476855
HEad  -40.4704 18.5127 -28.0159
LeftShoulder1  10.9972 -22.943 -35.3916
LeftArm  -21.8748 -38.7617 -29.5556
LeftForeArm  7.28905 -44.4305 -10.4869
LeftHand  -0.25398 0.0180481 5.50724
RightShoulder  5.43983 12.041 29.0073
RightArm  -28.594 20.9781 16.0955
RightForeArm  -22.9472 52.7025 16.4705
RightHand  0.106681 -0.60043 2.7345
LeftUpLeg  -36.7029 14.5472 -4.12595
LeftLeg  27.8098 -5.82294 -2.99157
LeftFoot  -4.05723 0.802972 -12.2601
LeftToes  1.06244e-005 4.65855e-005 -8.18506e-006
865
root  65.9679 39.2642 28.291 -167.773 -14.7309 177.947
RightUpLeg  -24.3372 -16.1494 -8.95475
RightLeg  5.86486 -33.887 7.1431
RightFoot  9.07201 0.471946 -2.26988
RightToes  0.00048216 0.542163 -0.142577
Spine  51.9114 -4.9818 8.50985
Spine1  7.66125 -1.82058 0.916338
HEad  -42.4609 22.103 -31.9244
LeftShoulder1  11.0858 -22.2277 -36.8758
LeftArm  -18.5555 -32.3519 -31.4111
LeftForeArm  9.69408 -49.6561 -12.5253
LeftHand  -0.25398 0.0180481 5.50724
RightShoulder  5.61047 11.7168 30.8967
RightArm  -27.0439 13.125 17.4592
RightForeArm  -19.2499 58.8897 20.6769
RightHand  0.0566602 -1.88451 2.39617
LeftUpLeg  -35.3228 16.6596 -2.73326
LeftLeg  29.9659 -0.337811 0.123159
LeftFoot  -5.21592 0.527315 -9.2833
LeftToes  1.06244e-005 4.65855e-005 -8.18506e-006
